<svg width="419" height="236" viewBox="0 0 419 236" fill="none" xmlns="http://www.w3.org/2000/svg">
<path d="M400 1.22499e-05H19C15.7183 -0.00372464 12.4922 0.847566 9.63965 2.47001C8.95639 2.85781 8.29848 3.28866 7.66992 3.75999C5.28984 5.52453 3.35631 7.8222 2.02435 10.4688C0.692403 13.1153 -0.000911247 16.0372 8.98869e-07 19V217C0.00447851 222.038 2.0077 226.868 5.56992 230.43C9.13214 233.992 13.9623 235.996 19 236H400C405.038 235.995 409.868 233.992 413.43 230.43C416.992 226.868 418.995 222.038 419 217V19C418.995 13.9623 416.992 9.13222 413.43 5.57002C409.868 2.00782 405.038 0.00457181 400 1.22499e-05ZM417 217C416.994 221.507 415.2 225.827 412.014 229.014C408.827 232.2 404.507 233.994 400 234H19C14.4933 233.994 10.173 232.2 6.98624 229.014C3.7995 225.827 2.00638 221.507 2 217V19C2.0142 15.4073 3.15996 11.9104 5.27457 9.00593C7.38917 6.10144 10.3651 3.93701 13.7798 2.82002C13.9199 2.78002 14.0498 2.73001 14.1899 2.69001C15.752 2.23082 17.3719 1.99844 19 2.00001H400C404.507 2.00647 408.827 3.79959 412.014 6.98631C415.2 10.173 416.994 14.4933 417 19V217Z" fill="#F34854"/>
<path d="M209.083 117.916C207.566 117.915 206.073 117.531 204.745 116.797L5.70133 7.24454C5.46901 7.11666 5.297 6.90171 5.22315 6.64701C5.1493 6.39231 5.17965 6.11871 5.30753 5.88639C5.43541 5.65407 5.65036 5.48206 5.90507 5.40821C6.15977 5.33436 6.43336 5.36471 6.66569 5.49259L205.709 115.045C206.724 115.606 207.863 115.905 209.022 115.915C210.182 115.925 211.325 115.646 212.35 115.104L414.67 8.37443C414.786 8.31284 414.913 8.27475 415.044 8.26237C415.175 8.24998 415.307 8.26354 415.433 8.30225C415.558 8.34096 415.675 8.40409 415.776 8.48798C415.878 8.57188 415.961 8.6749 416.022 8.79117C416.084 8.90745 416.122 9.03469 416.134 9.1656C416.146 9.2965 416.132 9.42852 416.093 9.55408C416.054 9.67964 415.991 9.7963 415.907 9.89735C415.823 9.99839 415.719 10.0819 415.603 10.143L213.283 116.872C211.989 117.557 210.547 117.915 209.083 117.916Z" fill="#F34854"/>
<path d="M209.004 150C226.677 150 241.004 135.673 241.004 118C241.004 100.327 226.677 86 209.004 86C191.331 86 177.004 100.327 177.004 118C177.004 135.673 191.331 150 209.004 150Z" fill="#F34854"/>
</svg>
