<svg width="517" height="500" viewBox="0 0 517 500" fill="none" xmlns="http://www.w3.org/2000/svg">
<g clip-path="url(#clip0)">
<path d="M471.634 499.209V449.095C471.634 449.095 491.163 484.624 471.634 499.209Z" fill="#F1F1F1"/>
<path d="M472.84 499.2L435.924 465.31C435.924 465.31 475.303 474.95 472.84 499.2Z" fill="#F1F1F1"/>
<path d="M342.634 221.117L146.736 335.612C146.05 336.012 145.234 336.124 144.466 335.922C143.699 335.721 143.042 335.223 142.641 334.539L16.6657 118.999C16.266 118.313 16.1546 117.497 16.356 116.729C16.5573 115.962 17.0549 115.305 17.7396 114.904L213.638 0.408493C214.324 0.00881077 215.14 -0.102586 215.907 0.0987417C216.675 0.300069 217.331 0.797681 217.733 1.48241L343.708 217.022C344.108 217.708 344.219 218.524 344.018 219.292C343.816 220.059 343.319 220.716 342.634 221.117Z" fill="white"/>
<path d="M342.634 221.117L146.736 335.612C146.05 336.012 145.234 336.124 144.466 335.922C143.699 335.721 143.042 335.223 142.641 334.539L16.6657 118.999C16.266 118.313 16.1546 117.497 16.356 116.729C16.5573 115.962 17.0549 115.305 17.7396 114.904L213.638 0.408493C214.324 0.00881077 215.14 -0.102586 215.907 0.0987417C216.675 0.300069 217.331 0.797681 217.733 1.48241L343.708 217.022C344.108 217.708 344.219 218.524 344.018 219.292C343.816 220.059 343.319 220.716 342.634 221.117ZM18.3439 115.938C17.933 116.178 17.6344 116.572 17.5136 117.033C17.3928 117.494 17.4597 117.983 17.6995 118.395L143.675 333.934C143.916 334.345 144.309 334.644 144.77 334.765C145.231 334.885 145.72 334.819 146.132 334.579L342.03 220.083C342.441 219.842 342.739 219.449 342.86 218.988C342.981 218.527 342.914 218.038 342.674 217.626L216.699 2.08657C216.458 1.67572 216.064 1.37713 215.604 1.25633C215.143 1.13553 214.653 1.20238 214.242 1.44222L18.3439 115.938Z" fill="#3F3D56"/>
<path d="M144.268 137.402L95.6809 165.8C94.9953 166.199 94.1791 166.311 93.4114 166.109C92.6438 165.908 91.9873 165.41 91.5861 164.726L63.1888 116.139C62.7891 115.453 62.6777 114.637 62.879 113.869C63.0803 113.102 63.5779 112.445 64.2627 112.044L112.85 83.6467C113.535 83.247 114.351 83.1356 115.119 83.3369C115.887 83.5383 116.543 84.0359 116.944 84.7206L145.342 133.307C145.741 133.993 145.853 134.809 145.651 135.577C145.45 136.345 144.953 137.001 144.268 137.402ZM64.8669 113.078C64.456 113.318 64.1574 113.712 64.0366 114.173C63.9158 114.634 63.9827 115.123 64.2225 115.535L92.6198 164.122C92.8606 164.532 93.2545 164.831 93.7151 164.952C94.1757 165.073 94.6654 165.006 95.0768 164.766L143.664 136.369C144.075 136.128 144.373 135.734 144.494 135.273C144.615 134.813 144.548 134.323 144.308 133.912L115.911 85.3248C115.67 84.9139 115.276 84.6154 114.815 84.4946C114.355 84.3738 113.865 84.4406 113.454 84.6804L64.8669 113.078Z" fill="#F2F2F2"/>
<path d="M133.786 151.503L85.1992 179.9C84.5822 180.26 83.8476 180.36 83.1567 180.179C82.4658 179.998 81.875 179.55 81.5139 178.934L53.1165 130.347C52.7568 129.73 52.6566 128.995 52.8377 128.305C53.0189 127.614 53.4668 127.023 54.0831 126.662L102.67 98.2643C103.287 97.9046 104.022 97.8044 104.712 97.9856C105.403 98.1668 105.994 98.6146 106.355 99.2309L134.753 147.818C135.112 148.435 135.213 149.169 135.031 149.86C134.85 150.551 134.402 151.142 133.786 151.503Z" fill="white"/>
<path d="M133.786 151.503L85.1992 179.9C84.5822 180.26 83.8476 180.36 83.1567 180.179C82.4658 179.998 81.875 179.55 81.5139 178.934L53.1165 130.347C52.7568 129.73 52.6566 128.995 52.8377 128.305C53.0189 127.614 53.4668 127.023 54.0831 126.662L102.67 98.2643C103.287 97.9046 104.022 97.8044 104.712 97.9856C105.403 98.1668 105.994 98.6146 106.355 99.2309L134.753 147.818C135.112 148.435 135.213 149.169 135.031 149.86C134.85 150.551 134.402 151.142 133.786 151.503Z" fill="#41C1CA"/>
<path d="M251.059 114.86L99.0959 203.677C98.479 204.038 97.7441 204.138 97.053 203.957C96.3618 203.776 95.771 203.327 95.4105 202.711C95.0499 202.094 94.9492 201.359 95.1305 200.668C95.3117 199.977 95.7601 199.386 96.377 199.025L248.34 110.208C248.646 110.03 248.983 109.913 249.334 109.865C249.684 109.817 250.041 109.838 250.383 109.928C250.725 110.018 251.047 110.174 251.328 110.388C251.61 110.602 251.847 110.869 252.026 111.175C252.204 111.48 252.321 111.818 252.369 112.168C252.417 112.519 252.395 112.875 252.306 113.217C252.216 113.56 252.06 113.881 251.846 114.163C251.632 114.445 251.365 114.681 251.059 114.86Z" fill="#CCCCCC"/>
<path d="M223.726 152.332L108.461 219.7C108.156 219.879 107.818 219.996 107.467 220.044C107.117 220.092 106.76 220.07 106.418 219.98C105.727 219.799 105.136 219.351 104.776 218.734C104.415 218.117 104.314 217.382 104.496 216.691C104.677 216 105.125 215.409 105.742 215.048L221.007 147.68C221.312 147.502 221.65 147.385 222 147.337C222.351 147.289 222.707 147.311 223.05 147.4C223.392 147.49 223.713 147.646 223.995 147.86C224.277 148.074 224.514 148.341 224.692 148.647C224.871 148.952 224.987 149.29 225.035 149.641C225.083 149.991 225.062 150.348 224.972 150.69C224.882 151.032 224.726 151.353 224.512 151.635C224.298 151.917 224.031 152.154 223.726 152.332V152.332Z" fill="#CCCCCC"/>
<path d="M216.103 56.2376L148.908 95.5104C148.291 95.871 147.557 95.9717 146.865 95.7905C146.174 95.6092 145.583 95.1608 145.223 94.5439C144.862 93.9271 144.762 93.1922 144.943 92.5011C145.124 91.8099 145.573 91.2191 146.189 90.8585L213.384 51.5857C214.001 51.2251 214.736 51.1244 215.427 51.3056C215.769 51.3954 216.09 51.5517 216.372 51.7655C216.654 51.9794 216.891 52.2467 217.069 52.5522C217.248 52.8576 217.365 53.1953 217.413 53.5458C217.461 53.8963 217.439 54.2528 217.349 54.5951C217.26 54.9373 217.103 55.2585 216.89 55.5403C216.676 55.8221 216.408 56.0591 216.103 56.2376Z" fill="#CCCCCC"/>
<path d="M208.698 82.062L158.273 111.534C157.968 111.712 157.63 111.829 157.28 111.877C156.929 111.925 156.573 111.903 156.23 111.814C155.888 111.724 155.567 111.568 155.285 111.354C155.003 111.14 154.766 110.873 154.588 110.567C154.409 110.262 154.293 109.924 154.245 109.574C154.197 109.223 154.218 108.866 154.308 108.524C154.398 108.182 154.554 107.861 154.768 107.579C154.982 107.297 155.249 107.06 155.554 106.882L205.98 77.41C206.596 77.0495 207.331 76.9488 208.022 77.13C208.714 77.3113 209.304 77.7597 209.665 78.3766C210.026 78.9935 210.126 79.7283 209.945 80.4195C209.764 81.1106 209.315 81.7014 208.698 82.062Z" fill="#CCCCCC"/>
<path d="M269.789 146.907L117.826 235.724C117.209 236.084 116.474 236.185 115.783 236.004C115.092 235.822 114.501 235.374 114.14 234.757C113.78 234.14 113.679 233.405 113.86 232.714C114.042 232.023 114.49 231.432 115.107 231.072L267.07 142.255C267.687 141.894 268.422 141.793 269.113 141.975C269.804 142.156 270.395 142.604 270.756 143.221C271.116 143.838 271.217 144.573 271.036 145.264C270.854 145.955 270.406 146.546 269.789 146.907V146.907Z" fill="#CCCCCC"/>
<path d="M242.456 184.379L127.191 251.747C126.886 251.926 126.548 252.042 126.197 252.09C125.847 252.138 125.49 252.117 125.148 252.027C124.806 251.937 124.485 251.781 124.203 251.567C123.921 251.353 123.684 251.086 123.506 250.781C123.327 250.475 123.21 250.138 123.162 249.787C123.114 249.437 123.136 249.08 123.226 248.738C123.315 248.396 123.472 248.074 123.685 247.793C123.899 247.511 124.167 247.274 124.472 247.095L239.737 179.727C240.042 179.549 240.38 179.432 240.73 179.384C241.081 179.336 241.437 179.357 241.78 179.447C242.122 179.537 242.443 179.693 242.725 179.907C243.007 180.121 243.244 180.388 243.422 180.694C243.601 180.999 243.717 181.337 243.765 181.687C243.813 182.038 243.792 182.394 243.702 182.737C243.612 183.079 243.456 183.4 243.242 183.682C243.028 183.964 242.761 184.201 242.456 184.379V184.379Z" fill="#CCCCCC"/>
<path d="M288.519 178.953L136.556 267.77C136.251 267.949 135.913 268.066 135.562 268.114C135.212 268.162 134.855 268.14 134.513 268.05C134.171 267.961 133.85 267.804 133.568 267.591C133.286 267.377 133.049 267.109 132.871 266.804C132.692 266.498 132.576 266.161 132.527 265.81C132.479 265.46 132.501 265.103 132.591 264.761C132.68 264.419 132.837 264.098 133.051 263.816C133.264 263.534 133.532 263.297 133.837 263.118L285.8 174.301C286.106 174.123 286.443 174.006 286.794 173.958C287.145 173.91 287.501 173.932 287.843 174.021C288.186 174.111 288.507 174.267 288.788 174.481C289.07 174.695 289.307 174.962 289.486 175.268C289.664 175.573 289.781 175.911 289.829 176.262C289.877 176.612 289.856 176.969 289.766 177.311C289.676 177.653 289.52 177.974 289.306 178.256C289.092 178.538 288.825 178.775 288.519 178.953Z" fill="#CCCCCC"/>
<path d="M297.884 194.977L145.921 283.794C145.616 283.972 145.278 284.089 144.928 284.137C144.577 284.185 144.22 284.163 143.878 284.074C143.536 283.984 143.215 283.828 142.933 283.614C142.651 283.4 142.414 283.133 142.236 282.827C142.057 282.522 141.941 282.184 141.893 281.834C141.845 281.483 141.866 281.127 141.956 280.784C142.045 280.442 142.202 280.121 142.416 279.839C142.63 279.557 142.897 279.32 143.202 279.142L295.165 190.325C295.471 190.146 295.809 190.03 296.159 189.981C296.51 189.933 296.866 189.955 297.208 190.045C297.551 190.134 297.872 190.291 298.154 190.505C298.435 190.718 298.672 190.986 298.851 191.291C299.029 191.597 299.146 191.934 299.194 192.285C299.242 192.635 299.221 192.992 299.131 193.334C299.041 193.676 298.885 193.998 298.671 194.279C298.457 194.561 298.19 194.798 297.884 194.977Z" fill="#CCCCCC"/>
<path d="M248.743 257.353C250.854 254.867 252.754 252.209 254.424 249.407C255.921 246.88 257.391 244.177 257.721 241.213C257.89 239.95 257.758 238.666 257.337 237.464C256.916 236.262 256.217 235.176 255.297 234.295C254.408 233.476 253.281 232.96 252.08 232.824C250.879 232.687 249.665 232.937 248.615 233.536C247.552 234.146 246.674 235.032 246.074 236.1C245.473 237.168 245.173 238.379 245.204 239.604C245.291 240.953 245.68 242.265 246.344 243.442C247.008 244.619 247.93 245.631 249.039 246.403C253.531 249.657 260.546 249.487 265.333 247.01C270.726 244.221 273.512 236.923 269.275 231.927C268.394 230.888 266.928 232.049 267.149 233.17C267.428 234.684 268.276 236.034 269.518 236.944C270.76 237.855 272.302 238.256 273.83 238.068C275.358 237.879 276.756 237.114 277.739 235.928C278.722 234.743 279.216 233.228 279.118 231.691L277.214 232.804C279.549 233.838 282.115 234.239 284.654 233.967C287.193 233.695 289.616 232.758 291.678 231.252C292.698 230.511 293.609 229.631 294.385 228.636C295.317 227.42 296.883 226.635 298.151 225.758L307.288 219.445C308.632 218.516 307.354 216.303 305.999 217.239L297.724 222.957C296.345 223.91 294.957 224.851 293.586 225.816C292.606 226.506 292.003 227.62 291.112 228.439C289.424 229.957 287.339 230.965 285.1 231.343C282.862 231.722 280.561 231.456 278.468 230.578C278.273 230.473 278.054 230.42 277.833 230.424C277.611 230.428 277.395 230.489 277.204 230.6C277.012 230.712 276.853 230.871 276.741 231.062C276.629 231.253 276.568 231.469 276.563 231.691C276.664 232.608 276.399 233.527 275.825 234.249C275.251 234.972 274.415 235.438 273.499 235.546C272.583 235.655 271.661 235.397 270.934 234.829C270.207 234.261 269.734 233.429 269.618 232.514L267.491 233.757C270.224 236.979 268.404 241.922 265.256 244.085C261.735 246.503 256.532 246.923 252.563 245.419C251.589 245.084 250.695 244.552 249.937 243.856C249.178 243.16 248.571 242.315 248.154 241.374C247.767 240.524 247.656 239.573 247.838 238.657C248.02 237.741 248.484 236.904 249.166 236.266C249.757 235.682 250.552 235.351 251.383 235.342C252.214 235.333 253.015 235.648 253.619 236.219C254.276 236.89 254.758 237.712 255.023 238.613C255.287 239.514 255.326 240.466 255.136 241.386C254.727 243.945 253.312 246.306 251.996 248.492C250.493 250.983 248.793 253.349 246.913 255.569C245.859 256.817 247.678 258.614 248.743 257.354L248.743 257.353Z" fill="white"/>
<path d="M248.743 257.353C250.854 254.867 252.754 252.209 254.424 249.407C255.921 246.88 257.391 244.177 257.721 241.213C257.89 239.95 257.758 238.666 257.337 237.464C256.916 236.262 256.217 235.176 255.297 234.295C254.408 233.476 253.281 232.96 252.08 232.824C250.879 232.687 249.665 232.937 248.615 233.536C247.552 234.146 246.674 235.032 246.074 236.1C245.473 237.168 245.173 238.379 245.204 239.604C245.291 240.953 245.68 242.265 246.344 243.442C247.008 244.619 247.93 245.631 249.039 246.403C253.531 249.657 260.546 249.487 265.333 247.01C270.726 244.221 273.512 236.923 269.275 231.927C268.394 230.888 266.928 232.049 267.149 233.17C267.428 234.684 268.276 236.034 269.518 236.944C270.76 237.855 272.302 238.256 273.83 238.068C275.358 237.879 276.756 237.114 277.739 235.928C278.722 234.743 279.216 233.228 279.118 231.691L277.214 232.804C279.549 233.838 282.115 234.239 284.654 233.967C287.193 233.695 289.616 232.758 291.678 231.252C292.698 230.511 293.609 229.631 294.385 228.636C295.317 227.42 296.883 226.635 298.151 225.758L307.288 219.445C308.632 218.516 307.354 216.303 305.999 217.239L297.724 222.957C296.345 223.91 294.957 224.851 293.586 225.816C292.606 226.506 292.003 227.62 291.112 228.439C289.424 229.957 287.339 230.965 285.1 231.343C282.862 231.722 280.561 231.456 278.468 230.578C278.273 230.473 278.054 230.42 277.833 230.424C277.611 230.428 277.395 230.489 277.204 230.6C277.012 230.712 276.853 230.871 276.741 231.062C276.629 231.253 276.568 231.469 276.563 231.691C276.664 232.608 276.399 233.527 275.825 234.249C275.251 234.972 274.415 235.438 273.499 235.546C272.583 235.655 271.661 235.397 270.934 234.829C270.207 234.261 269.734 233.429 269.618 232.514L267.491 233.757C270.224 236.979 268.404 241.922 265.256 244.085C261.735 246.503 256.532 246.923 252.563 245.419C251.589 245.084 250.695 244.552 249.937 243.856C249.178 243.16 248.571 242.315 248.154 241.374C247.767 240.524 247.656 239.573 247.838 238.657C248.02 237.741 248.484 236.904 249.166 236.266C249.757 235.682 250.552 235.351 251.383 235.342C252.214 235.333 253.015 235.648 253.619 236.219C254.276 236.89 254.758 237.712 255.023 238.613C255.287 239.514 255.326 240.466 255.136 241.386C254.727 243.945 253.312 246.306 251.996 248.492C250.493 250.983 248.793 253.349 246.913 255.569C245.859 256.817 247.678 258.614 248.743 257.354L248.743 257.353Z" fill="#41C1CA"/>
<path d="M271.423 318.094C271.644 318.321 271.845 318.564 272.027 318.822L300.325 318.13L303.626 312.098L313.381 315.89L308.575 327.137C308.187 328.046 307.514 328.804 306.658 329.298C305.803 329.791 304.81 329.994 303.829 329.876L271.858 326.014C271.103 326.968 270.076 327.671 268.913 328.028C267.75 328.385 266.506 328.379 265.346 328.011C264.186 327.644 263.166 326.932 262.42 325.97C261.675 325.009 261.24 323.843 261.174 322.628C261.107 321.413 261.412 320.207 262.048 319.169C262.683 318.132 263.62 317.313 264.732 316.821C265.845 316.328 267.081 316.187 268.276 316.414C269.472 316.642 270.569 317.228 271.423 318.094Z" fill="#FFB7B7"/>
<path d="M363.67 489.948H354.365L349.939 454.059L363.671 454.06L363.67 489.948Z" fill="#FFB7B7"/>
<path d="M366.042 498.968L336.041 498.967V498.587C336.041 495.49 337.271 492.52 339.461 490.33C341.651 488.141 344.621 486.91 347.718 486.91H347.719L366.043 486.911L366.042 498.968Z" fill="#2F2E41"/>
<path d="M279.181 489.742L270.625 486.086L280.653 451.344L293.281 456.739L279.181 489.742Z" fill="#FFB7B7"/>
<path d="M277.821 498.968L250.232 487.182L250.381 486.833C251.597 483.985 253.896 481.737 256.77 480.583C259.644 479.43 262.858 479.465 265.706 480.681L265.707 480.682L282.558 487.88L277.821 498.968Z" fill="#2F2E41"/>
<path d="M318.444 325.869L317.77 336.772L337.438 338.876L358.017 341.079L351.959 324.523L318.444 325.869Z" fill="#FFB7B7"/>
<path d="M317.151 336.912L309.511 283.649L322.754 279.309L326.643 273.974L345.571 275.094L348.35 281.319L358.443 286.088L356.892 314.894L358.023 338.99L317.151 336.912Z" fill="#2F2E41"/>
<path d="M312.342 322.638L298.872 317.249L298.93 317.009C298.987 316.768 304.72 292.81 305.482 288.96C306.275 284.949 309.172 283.84 309.295 283.795L309.385 283.762L314.716 285.385L317.057 303.78L312.342 322.638Z" fill="#2F2E41"/>
<path d="M286.112 483.434L268.181 479.756L296.839 400.677L306.648 373.704C306.648 373.704 312.869 352.077 315.679 343.708L317.376 332.478L357.528 336.923C357.528 336.923 368.743 353.392 365.336 380.237L366.877 481.135L348.946 482.055L333.927 380.294L307.567 436.079C307.567 436.079 299.259 459.884 293.315 465.044L286.112 483.434Z" fill="#2F2E41"/>
<path d="M341.426 340.668C341.742 340.66 342.058 340.678 342.371 340.72L361.103 319.498L358.924 312.976L368.337 308.401L373.317 319.573C373.719 320.475 373.818 321.484 373.598 322.447C373.378 323.41 372.852 324.277 372.098 324.915L347.529 345.734C347.716 346.936 347.533 348.167 347.004 349.262C346.475 350.358 345.624 351.266 344.566 351.867C343.508 352.467 342.292 352.732 341.08 352.624C339.868 352.517 338.718 352.043 337.782 351.266C336.846 350.489 336.168 349.445 335.84 348.274C335.511 347.102 335.547 345.859 335.943 344.708C336.339 343.558 337.075 342.555 338.055 341.833C339.034 341.111 340.21 340.705 341.426 340.668Z" fill="#FFB7B7"/>
<path d="M359.608 321.564L351.794 303.183L354.841 290.38L358.125 286.232C358.366 286.129 358.625 286.077 358.886 286.079C359.148 286.082 359.406 286.138 359.645 286.246C360.856 286.733 361.887 288.227 362.71 290.686L370.033 311.545L359.608 321.564Z" fill="#2F2E41"/>
<path d="M319.067 267.164V253.306C319.067 248.382 321.023 243.659 324.505 240.176C327.988 236.694 332.711 234.738 337.635 234.738C342.56 234.738 347.283 236.694 350.765 240.176C354.247 243.659 356.204 248.382 356.204 253.306V267.164C356.203 267.825 355.94 268.459 355.472 268.926C355.005 269.394 354.371 269.657 353.71 269.658H321.561C320.9 269.657 320.266 269.394 319.798 268.926C319.33 268.459 319.067 267.825 319.067 267.164Z" fill="#2F2E41"/>
<path d="M333.82 269.335C341.338 269.335 347.433 263.24 347.433 255.721C347.433 248.203 341.338 242.108 333.82 242.108C326.301 242.108 320.206 248.203 320.206 255.721C320.206 263.24 326.301 269.335 333.82 269.335Z" fill="#FFB7B7"/>
<path d="M314.674 254.415C314.678 250.521 316.227 246.787 318.981 244.033C321.734 241.28 325.468 239.731 329.362 239.726H332.134C336.028 239.731 339.762 241.28 342.515 244.033C345.269 246.787 346.818 250.521 346.822 254.415V254.692H340.965L338.968 249.098L338.568 254.692H335.541L334.533 251.87L334.332 254.692H314.674L314.674 254.415Z" fill="#2F2E41"/>
<path d="M332.48 271.216C332.205 270.844 332.041 270.401 332.006 269.94C331.972 269.478 332.068 269.016 332.285 268.607C335.222 263.021 339.334 252.699 333.876 246.333L333.483 245.876H349.329V269.666L334.934 272.206C334.789 272.231 334.641 272.244 334.493 272.245C334.1 272.245 333.713 272.151 333.363 271.973C333.013 271.794 332.71 271.534 332.48 271.216Z" fill="#2F2E41"/>
<path d="M147.638 482.109L156.046 485.114L171.639 454.111L159.229 449.676L147.638 482.109Z" fill="#9F616A"/>
<path d="M142.579 489.494L146.474 478.597L163.034 484.516C165.83 485.519 168.115 487.59 169.387 490.276C170.658 492.961 170.812 496.042 169.816 498.841L169.693 499.184L142.579 489.494Z" fill="#2F2E41"/>
<path d="M202.317 490.426L211.247 490.426L215.495 455.983L202.316 455.984L202.317 490.426Z" fill="#9F616A"/>
<path d="M200.039 487.511L217.625 487.51H217.626C219.097 487.51 220.555 487.8 221.915 488.363C223.274 488.926 224.51 489.752 225.55 490.793C226.591 491.833 227.417 493.069 227.98 494.428C228.543 495.788 228.833 497.245 228.833 498.717V499.081L200.04 499.082L200.039 487.511Z" fill="#2F2E41"/>
<path d="M181.966 270.379L185.85 262.705C185.85 262.705 200.317 266.33 201.632 274.715L181.966 270.379Z" fill="#F1F1F1"/>
<path d="M165.943 358.122L176.504 417.056L148.461 466.649L165.214 473.204L193.621 425.132L197.262 412.021L199.447 480.488L214.556 480.029L221.483 416.098L210.373 356.665L165.943 358.122Z" fill="#2F2E41"/>
<path d="M185.99 372.054C170.475 372.054 160.624 369.086 160.404 369.039L160.047 368.963L168.128 331.495L168.492 296.935C168.492 282.289 178.131 271.492 179.468 270.495C179.694 269.606 180.11 268.777 180.689 268.066C181.268 267.354 181.995 266.778 182.82 266.377C186.035 264.918 189.964 266.668 190.129 266.744L201.922 271.165L201.977 271.329C202.12 271.748 217.652 322.74 217.652 322.74C217.652 322.74 216.712 367.294 216.385 368.754C216.385 368.754 194.611 372.054 185.99 372.054Z" fill="#3F3D56"/>
<path d="M197.912 260.289C206.715 260.289 213.851 253.153 213.851 244.35C213.851 235.547 206.715 228.411 197.912 228.411C189.109 228.411 181.973 235.547 181.973 244.35C181.973 253.153 189.109 260.289 197.912 260.289Z" fill="#9F616A"/>
<path opacity="0.2" d="M180.14 299.761L208.026 338.667L212.143 320.499L180.14 299.761Z" fill="black"/>
<path d="M267.565 326.233C266.781 326.854 265.87 327.295 264.897 327.525C263.924 327.755 262.912 327.77 261.933 327.567C260.954 327.364 260.031 326.948 259.23 326.35C258.429 325.752 257.768 324.985 257.295 324.104L233.294 327.946L238.494 316.435L260.489 314.552C262.021 313.855 263.756 313.745 265.365 314.242C266.973 314.739 268.343 315.809 269.216 317.249C270.088 318.689 270.402 320.399 270.098 322.055C269.793 323.711 268.892 325.198 267.565 326.233H267.565Z" fill="#9F616A"/>
<path d="M239.73 315.78L248.354 314.934L250.744 326.964L239.892 327.156L239.73 315.78Z" fill="#F1F1F1"/>
<path d="M246.799 331.156L204.563 327.395L183.236 293.478L183.17 293.178C182.565 290.407 182.989 287.511 184.363 285.03C185.736 282.549 187.966 280.653 190.636 279.695C193.305 278.738 196.232 278.785 198.869 279.827C201.507 280.869 203.675 282.836 204.969 285.36L217.488 309.78L242.754 313.599L246.799 331.156Z" fill="#3F3D56"/>
<path d="M184.336 258.189L197.565 258.663C198.371 258.692 200.56 249.99 200.846 248.184C201.073 247.009 201.719 245.956 202.665 245.223C203.611 244.489 204.792 244.125 205.986 244.198C206.977 244.292 209.474 242.442 212.051 240.251C216.943 236.092 216.688 228.28 211.314 224.766C211.167 224.67 211.023 224.582 210.882 224.503C207.492 222.605 203.526 221.968 199.641 221.919C196.119 221.875 192.498 222.318 189.395 223.985C183.833 226.974 180.873 233.504 180.613 239.813C180.353 246.122 182.375 252.291 184.67 258.173" fill="#2F2E41"/>
<path d="M515.969 499.707H0.841976C0.658249 499.707 0.482046 499.634 0.352131 499.504C0.222216 499.374 0.149231 499.198 0.149231 499.015C0.149231 498.831 0.222216 498.655 0.352131 498.525C0.482046 498.395 0.658249 498.322 0.841976 498.322H516.245C516.428 498.322 516.604 498.395 516.734 498.525C516.864 498.655 516.937 498.831 516.937 499.015C516.937 499.397 516.352 499.707 515.969 499.707Z" fill="#CBCBCB"/>
</g>
<defs>
<clipPath id="clip0">
<rect width="516.788" height="499.707" fill="white" transform="translate(0.149231)"/>
</clipPath>
</defs>
</svg>
