<svg width="518" height="500" viewBox="0 0 518 500" fill="none" xmlns="http://www.w3.org/2000/svg">
<g clip-path="url(#clip0)">
<path d="M472.158 499.209V449.095C472.158 449.095 491.688 484.624 472.158 499.209Z" fill="#F1F1F1"/>
<path d="M473.365 499.2L436.448 465.31C436.448 465.31 475.828 474.95 473.365 499.2Z" fill="#F1F1F1"/>
<path d="M343.159 221.117L147.261 335.612C146.575 336.012 145.759 336.123 144.991 335.922C144.224 335.721 143.567 335.223 143.166 334.538L17.1906 118.999C16.7909 118.313 16.6795 117.497 16.8808 116.729C17.0821 115.962 17.5798 115.305 18.2645 114.904L214.163 0.408478C214.848 0.00879551 215.664 -0.102601 216.432 0.0987264C217.2 0.300054 217.856 0.797666 218.258 1.48239L344.233 217.022C344.633 217.708 344.744 218.524 344.543 219.292C344.341 220.059 343.844 220.716 343.159 221.117Z" fill="white"/>
<path d="M343.159 221.117L147.261 335.612C146.575 336.012 145.759 336.123 144.991 335.922C144.224 335.721 143.567 335.223 143.166 334.538L17.1906 118.999C16.7909 118.313 16.6795 117.497 16.8808 116.729C17.0821 115.962 17.5798 115.305 18.2645 114.904L214.163 0.408478C214.848 0.00879551 215.664 -0.102601 216.432 0.0987264C217.2 0.300054 217.856 0.797666 218.258 1.48239L344.233 217.022C344.633 217.708 344.744 218.524 344.543 219.292C344.341 220.059 343.844 220.716 343.159 221.117ZM18.8687 115.938C18.4578 116.178 18.1593 116.572 18.0385 117.033C17.9177 117.494 17.9845 117.983 18.2244 118.395L144.2 333.934C144.44 334.345 144.834 334.644 145.295 334.765C145.755 334.885 146.245 334.818 146.657 334.579L342.555 220.083C342.966 219.842 343.264 219.449 343.385 218.988C343.506 218.527 343.439 218.038 343.199 217.626L217.224 2.08656C216.983 1.6757 216.589 1.37712 216.129 1.25632C215.668 1.13552 215.178 1.20237 214.767 1.4422L18.8687 115.938Z" fill="#3F3D56"/>
<path d="M144.793 137.402L96.2058 165.8C95.5201 166.199 94.704 166.311 93.9363 166.109C93.1686 165.908 92.5121 165.41 92.1109 164.726L63.7136 116.139C63.3139 115.453 63.2025 114.637 63.4038 113.869C63.6052 113.102 64.1028 112.445 64.7875 112.044L113.374 83.6467C114.06 83.247 114.876 83.1356 115.644 83.3369C116.412 83.5383 117.068 84.0359 117.469 84.7206L145.867 133.307C146.266 133.993 146.378 134.809 146.176 135.577C145.975 136.345 145.477 137.001 144.793 137.402V137.402ZM65.3917 113.078C64.9809 113.318 64.6823 113.712 64.5615 114.173C64.4407 114.634 64.5075 115.123 64.7474 115.535L93.1447 164.122C93.3854 164.532 93.7793 164.831 94.2399 164.952C94.7005 165.073 95.1902 165.006 95.6016 164.766L144.188 136.369C144.599 136.128 144.898 135.734 145.019 135.273C145.14 134.813 145.073 134.323 144.833 133.912L116.436 85.3248C116.195 84.9139 115.801 84.6154 115.34 84.4946C114.88 84.3738 114.39 84.4406 113.979 84.6804L65.3917 113.078Z" fill="#F2F2F2"/>
<path d="M134.311 151.503L85.7241 179.9C85.107 180.26 84.3724 180.36 83.6815 180.179C82.9906 179.998 82.3998 179.55 82.0387 178.934L53.6414 130.347C53.2816 129.73 53.1814 128.995 53.3626 128.305C53.5438 127.614 53.9916 127.023 54.6079 126.662L103.195 98.2643C103.812 97.9046 104.546 97.8044 105.237 97.9856C105.928 98.1668 106.519 98.6146 106.88 99.2309L135.277 147.818C135.637 148.435 135.737 149.169 135.556 149.86C135.375 150.551 134.927 151.142 134.311 151.503V151.503Z" fill="white"/>
<path d="M134.311 151.503L85.7241 179.9C85.107 180.26 84.3724 180.36 83.6815 180.179C82.9906 179.998 82.3998 179.55 82.0387 178.934L53.6414 130.347C53.2816 129.73 53.1814 128.995 53.3626 128.305C53.5438 127.614 53.9916 127.023 54.6079 126.662L103.195 98.2643C103.812 97.9046 104.546 97.8044 105.237 97.9856C105.928 98.1668 106.519 98.6146 106.88 99.2309L135.277 147.818C135.637 148.435 135.737 149.169 135.556 149.86C135.375 150.551 134.927 151.142 134.311 151.503V151.503Z" fill="#F34854"/>
<path d="M251.584 114.86L99.6207 203.677C99.0038 204.038 98.269 204.138 97.5778 203.957C96.8867 203.776 96.2959 203.327 95.9353 202.711C95.5748 202.094 95.474 201.359 95.6553 200.668C95.8366 199.977 96.285 199.386 96.9018 199.025L248.865 110.208C249.17 110.03 249.508 109.913 249.859 109.865C250.209 109.817 250.566 109.838 250.908 109.928C251.25 110.018 251.571 110.174 251.853 110.388C252.135 110.602 252.372 110.869 252.55 111.175C252.729 111.48 252.846 111.818 252.894 112.168C252.942 112.519 252.92 112.875 252.83 113.217C252.741 113.56 252.584 113.881 252.371 114.163C252.157 114.445 251.889 114.681 251.584 114.86V114.86Z" fill="#CCCCCC"/>
<path d="M224.25 152.332L108.986 219.7C108.68 219.879 108.343 219.996 107.992 220.044C107.642 220.092 107.285 220.07 106.943 219.98C106.252 219.799 105.661 219.351 105.3 218.734C104.94 218.117 104.839 217.382 105.02 216.691C105.202 216 105.65 215.409 106.267 215.048L221.532 147.68C221.837 147.502 222.175 147.385 222.525 147.337C222.876 147.289 223.232 147.311 223.574 147.4C223.917 147.49 224.238 147.646 224.52 147.86C224.801 148.074 225.038 148.341 225.217 148.647C225.395 148.952 225.512 149.29 225.56 149.641C225.608 149.991 225.587 150.348 225.497 150.69C225.407 151.032 225.251 151.353 225.037 151.635C224.823 151.917 224.556 152.154 224.25 152.332V152.332Z" fill="#CCCCCC"/>
<path d="M216.628 56.2376L149.433 95.5104C148.816 95.871 148.081 95.9717 147.39 95.7905C146.699 95.6092 146.108 95.1608 145.748 94.5439C145.387 93.9271 145.286 93.1922 145.468 92.5011C145.649 91.8099 146.097 91.2191 146.714 90.8585L213.909 51.5857C214.526 51.2251 215.261 51.1244 215.952 51.3056C216.294 51.3954 216.615 51.5517 216.897 51.7655C217.179 51.9794 217.416 52.2467 217.594 52.5522C217.773 52.8576 217.889 53.1953 217.937 53.5458C217.985 53.8963 217.964 54.2528 217.874 54.5951C217.785 54.9373 217.628 55.2585 217.414 55.5403C217.201 55.8221 216.933 56.0591 216.628 56.2376Z" fill="#CCCCCC"/>
<path d="M209.223 82.062L158.798 111.534C158.493 111.712 158.155 111.829 157.805 111.877C157.454 111.925 157.098 111.903 156.755 111.814C156.413 111.724 156.092 111.568 155.81 111.354C155.528 111.14 155.291 110.873 155.113 110.567C154.934 110.262 154.818 109.924 154.77 109.574C154.722 109.223 154.743 108.866 154.833 108.524C154.923 108.182 155.079 107.861 155.293 107.579C155.507 107.297 155.774 107.06 156.079 106.882L206.504 77.41C207.121 77.0495 207.856 76.9488 208.547 77.13C209.238 77.3113 209.829 77.7597 210.19 78.3766C210.55 78.9934 210.651 79.7283 210.47 80.4194C210.289 81.1106 209.84 81.7014 209.223 82.062Z" fill="#CCCCCC"/>
<path d="M270.314 146.907L118.351 235.724C117.734 236.084 116.999 236.185 116.308 236.004C115.617 235.822 115.026 235.374 114.665 234.757C114.305 234.14 114.204 233.405 114.385 232.714C114.567 232.023 115.015 231.432 115.632 231.072L267.595 142.255C268.212 141.894 268.947 141.793 269.638 141.975C270.329 142.156 270.92 142.604 271.281 143.221C271.641 143.838 271.742 144.573 271.561 145.264C271.379 145.955 270.931 146.546 270.314 146.907V146.907Z" fill="#CCCCCC"/>
<path d="M242.98 184.379L127.716 251.747C127.41 251.926 127.073 252.042 126.722 252.09C126.372 252.138 126.015 252.117 125.673 252.027C125.331 251.937 125.01 251.781 124.728 251.567C124.446 251.353 124.209 251.086 124.03 250.781C123.852 250.475 123.735 250.138 123.687 249.787C123.639 249.437 123.661 249.08 123.75 248.738C123.84 248.396 123.996 248.074 124.21 247.793C124.424 247.511 124.691 247.274 124.997 247.095L240.262 179.727C240.567 179.549 240.905 179.432 241.255 179.384C241.606 179.336 241.962 179.357 242.304 179.447C242.647 179.537 242.968 179.693 243.25 179.907C243.532 180.121 243.768 180.388 243.947 180.694C244.125 180.999 244.242 181.337 244.29 181.687C244.338 182.038 244.317 182.394 244.227 182.737C244.137 183.079 243.981 183.4 243.767 183.682C243.553 183.964 243.286 184.201 242.98 184.379V184.379Z" fill="#CCCCCC"/>
<path d="M289.044 178.953L137.081 267.77C136.775 267.949 136.438 268.066 136.087 268.114C135.737 268.162 135.38 268.14 135.038 268.05C134.696 267.961 134.375 267.804 134.093 267.591C133.811 267.377 133.574 267.109 133.395 266.804C133.217 266.498 133.1 266.161 133.052 265.81C133.004 265.46 133.026 265.103 133.115 264.761C133.205 264.419 133.362 264.098 133.575 263.816C133.789 263.534 134.057 263.297 134.362 263.118L286.325 174.301C286.631 174.123 286.968 174.006 287.319 173.958C287.669 173.91 288.026 173.932 288.368 174.021C288.71 174.111 289.032 174.267 289.313 174.481C289.595 174.695 289.832 174.962 290.011 175.268C290.189 175.573 290.306 175.911 290.354 176.262C290.402 176.612 290.38 176.969 290.291 177.311C290.201 177.653 290.045 177.974 289.831 178.256C289.617 178.538 289.35 178.775 289.044 178.953V178.953Z" fill="#CCCCCC"/>
<path d="M298.409 194.977L146.446 283.794C146.141 283.972 145.803 284.089 145.452 284.137C145.102 284.185 144.745 284.163 144.403 284.074C144.061 283.984 143.74 283.828 143.458 283.614C143.176 283.4 142.939 283.133 142.761 282.827C142.582 282.522 142.465 282.184 142.417 281.834C142.369 281.483 142.391 281.127 142.481 280.784C142.57 280.442 142.727 280.121 142.94 279.839C143.154 279.557 143.422 279.32 143.727 279.142L295.69 190.325C295.996 190.146 296.333 190.03 296.684 189.981C297.034 189.933 297.391 189.955 297.733 190.045C298.075 190.134 298.397 190.291 298.678 190.505C298.96 190.718 299.197 190.986 299.376 191.291C299.554 191.597 299.671 191.934 299.719 192.285C299.767 192.635 299.746 192.992 299.656 193.334C299.566 193.676 299.41 193.998 299.196 194.279C298.982 194.561 298.715 194.798 298.409 194.977V194.977Z" fill="#CCCCCC"/>
<path d="M249.267 257.353C251.379 254.867 253.279 252.209 254.949 249.407C256.446 246.88 257.915 244.177 258.246 241.213C258.414 239.95 258.283 238.666 257.862 237.464C257.441 236.262 256.742 235.176 255.822 234.295C254.933 233.476 253.806 232.96 252.605 232.824C251.404 232.687 250.19 232.937 249.14 233.536C248.077 234.146 247.199 235.032 246.598 236.1C245.998 237.168 245.698 238.379 245.729 239.604C245.816 240.953 246.205 242.265 246.869 243.442C247.533 244.619 248.454 245.631 249.564 246.403C254.056 249.657 261.071 249.487 265.858 247.01C271.25 244.221 274.037 236.923 269.8 231.927C268.919 230.888 267.453 232.049 267.673 233.17C267.953 234.684 268.801 236.034 270.043 236.944C271.284 237.855 272.827 238.256 274.355 238.068C275.883 237.879 277.281 237.114 278.264 235.928C279.247 234.743 279.74 233.228 279.643 231.691L277.739 232.804C280.074 233.838 282.64 234.239 285.179 233.967C287.718 233.695 290.141 232.758 292.203 231.252C293.223 230.511 294.134 229.631 294.91 228.636C295.842 227.42 297.408 226.635 298.676 225.758L307.813 219.445C309.157 218.516 307.879 216.303 306.524 217.239L298.249 222.957C296.87 223.91 295.481 224.851 294.111 225.816C293.131 226.506 292.528 227.62 291.637 228.439C289.949 229.957 287.864 230.965 285.625 231.343C283.386 231.722 281.086 231.456 278.993 230.578C278.798 230.473 278.579 230.42 278.358 230.424C278.136 230.428 277.92 230.489 277.728 230.6C277.537 230.712 277.378 230.871 277.266 231.062C277.154 231.253 277.093 231.469 277.088 231.691C277.189 232.608 276.924 233.527 276.35 234.249C275.776 234.972 274.94 235.438 274.024 235.546C273.108 235.655 272.186 235.397 271.459 234.829C270.732 234.261 270.259 233.429 270.143 232.514L268.016 233.757C270.749 236.979 268.929 241.922 265.781 244.085C262.26 246.503 257.057 246.923 253.088 245.419C252.114 245.084 251.22 244.552 250.461 243.856C249.703 243.16 249.096 242.315 248.678 241.374C248.292 240.524 248.181 239.573 248.363 238.657C248.545 237.741 249.009 236.904 249.691 236.266C250.282 235.682 251.077 235.351 251.908 235.342C252.738 235.333 253.54 235.648 254.143 236.219C254.801 236.89 255.283 237.712 255.547 238.613C255.812 239.514 255.851 240.466 255.661 241.386C255.252 243.945 253.837 246.306 252.521 248.492C251.018 250.983 249.318 253.349 247.438 255.569C246.384 256.817 248.202 258.614 249.267 257.354L249.267 257.353Z" fill="white"/>
<path d="M249.267 257.353C251.379 254.867 253.279 252.209 254.949 249.407C256.446 246.88 257.915 244.177 258.246 241.213C258.414 239.95 258.283 238.666 257.862 237.464C257.441 236.262 256.742 235.176 255.822 234.295C254.933 233.476 253.806 232.96 252.605 232.824C251.404 232.687 250.19 232.937 249.14 233.536C248.077 234.146 247.199 235.032 246.598 236.1C245.998 237.168 245.698 238.379 245.729 239.604C245.816 240.953 246.205 242.265 246.869 243.442C247.533 244.619 248.454 245.631 249.564 246.403C254.056 249.657 261.071 249.487 265.858 247.01C271.25 244.221 274.037 236.923 269.8 231.927C268.919 230.888 267.453 232.049 267.673 233.17C267.953 234.684 268.801 236.034 270.043 236.944C271.284 237.855 272.827 238.256 274.355 238.068C275.883 237.879 277.281 237.114 278.264 235.928C279.247 234.743 279.74 233.228 279.643 231.691L277.739 232.804C280.074 233.838 282.64 234.239 285.179 233.967C287.718 233.695 290.141 232.758 292.203 231.252C293.223 230.511 294.134 229.631 294.91 228.636C295.842 227.42 297.408 226.635 298.676 225.758L307.813 219.445C309.157 218.516 307.879 216.303 306.524 217.239L298.249 222.957C296.87 223.91 295.481 224.851 294.111 225.816C293.131 226.506 292.528 227.62 291.637 228.439C289.949 229.957 287.864 230.965 285.625 231.343C283.386 231.722 281.086 231.456 278.993 230.578C278.798 230.473 278.579 230.42 278.358 230.424C278.136 230.428 277.92 230.489 277.728 230.6C277.537 230.712 277.378 230.871 277.266 231.062C277.154 231.253 277.093 231.469 277.088 231.691C277.189 232.608 276.924 233.527 276.35 234.249C275.776 234.972 274.94 235.438 274.024 235.546C273.108 235.655 272.186 235.397 271.459 234.829C270.732 234.261 270.259 233.429 270.143 232.514L268.016 233.757C270.749 236.979 268.929 241.922 265.781 244.085C262.26 246.503 257.057 246.923 253.088 245.419C252.114 245.084 251.22 244.552 250.461 243.856C249.703 243.16 249.096 242.315 248.678 241.374C248.292 240.524 248.181 239.573 248.363 238.657C248.545 237.741 249.009 236.904 249.691 236.266C250.282 235.682 251.077 235.351 251.908 235.342C252.738 235.333 253.54 235.648 254.143 236.219C254.801 236.89 255.283 237.712 255.547 238.613C255.812 239.514 255.851 240.466 255.661 241.386C255.252 243.945 253.837 246.306 252.521 248.492C251.018 250.983 249.318 253.349 247.438 255.569C246.384 256.817 248.202 258.614 249.267 257.354L249.267 257.353Z" fill="#F34854"/>
<path d="M271.948 318.094C272.168 318.321 272.37 318.564 272.552 318.822L300.85 318.13L304.151 312.098L313.906 315.89L309.1 327.137C308.712 328.046 308.039 328.804 307.183 329.298C306.327 329.791 305.334 329.994 304.353 329.876L272.382 326.014C271.628 326.968 270.601 327.671 269.438 328.028C268.275 328.385 267.031 328.379 265.871 328.011C264.711 327.644 263.691 326.932 262.945 325.97C262.2 325.009 261.765 323.843 261.698 322.628C261.632 321.413 261.937 320.207 262.572 319.169C263.208 318.132 264.145 317.313 265.257 316.821C266.37 316.328 267.606 316.187 268.801 316.414C269.997 316.642 271.094 317.228 271.948 318.094V318.094Z" fill="#FFB7B7"/>
<path d="M364.194 489.948H354.89L350.464 454.059L364.196 454.06L364.194 489.948Z" fill="#FFB7B7"/>
<path d="M366.567 498.968L336.566 498.967V498.587C336.566 495.49 337.796 492.52 339.986 490.33C342.176 488.141 345.146 486.91 348.243 486.91H348.244L366.568 486.911L366.567 498.968Z" fill="#2F2E41"/>
<path d="M279.706 489.742L271.15 486.086L281.178 451.344L293.806 456.739L279.706 489.742Z" fill="#FFB7B7"/>
<path d="M278.346 498.968L250.756 487.182L250.905 486.833C252.122 483.985 254.42 481.737 257.294 480.583C260.169 479.43 263.383 479.465 266.231 480.681L266.232 480.682L283.082 487.88L278.346 498.968Z" fill="#2F2E41"/>
<path d="M318.968 325.869L318.295 336.772L337.963 338.876L358.542 341.079L352.484 324.523L318.968 325.869Z" fill="#FFB7B7"/>
<path d="M317.676 336.912L310.036 283.649L323.278 279.309L327.168 273.974L346.096 275.094L348.875 281.319L358.968 286.088L357.416 314.894L358.548 338.99L317.676 336.912Z" fill="#2F2E41"/>
<path d="M312.867 322.638L299.397 317.249L299.454 317.009C299.512 316.768 305.245 292.81 306.007 288.96C306.8 284.949 309.697 283.84 309.82 283.795L309.91 283.762L315.241 285.385L317.582 303.78L312.867 322.638Z" fill="#2F2E41"/>
<path d="M286.636 483.434L268.706 479.756L297.364 400.677L307.173 373.704C307.173 373.704 313.394 352.077 316.204 343.708L317.9 332.478L358.053 336.923C358.053 336.923 369.268 353.392 365.861 380.237L367.402 481.135L349.471 482.055L334.452 380.294L308.092 436.079C308.092 436.079 299.784 459.884 293.839 465.044L286.636 483.434Z" fill="#2F2E41"/>
<path d="M341.951 340.668C342.267 340.66 342.583 340.678 342.896 340.72L361.628 319.498L359.449 312.976L368.862 308.401L373.842 319.573C374.244 320.475 374.343 321.484 374.123 322.447C373.903 323.41 373.377 324.277 372.623 324.915L348.053 345.734C348.241 346.936 348.058 348.167 347.529 349.262C346.999 350.358 346.149 351.266 345.091 351.867C344.033 352.467 342.817 352.732 341.605 352.624C340.393 352.517 339.243 352.043 338.307 351.266C337.37 350.489 336.693 349.445 336.365 348.274C336.036 347.102 336.072 345.859 336.468 344.708C336.863 343.558 337.6 342.555 338.579 341.833C339.559 341.111 340.735 340.705 341.951 340.668V340.668Z" fill="#FFB7B7"/>
<path d="M360.133 321.564L352.318 303.183L355.366 290.38L358.65 286.232C358.89 286.129 359.15 286.077 359.411 286.079C359.673 286.082 359.931 286.138 360.17 286.246C361.381 286.733 362.412 288.227 363.235 290.686L370.558 311.545L360.133 321.564Z" fill="#2F2E41"/>
<path d="M319.591 267.164V253.306C319.591 248.382 321.548 243.659 325.03 240.176C328.512 236.694 333.235 234.738 338.16 234.738C343.085 234.738 347.808 236.694 351.29 240.176C354.772 243.659 356.729 248.382 356.729 253.306V267.164C356.728 267.825 356.465 268.459 355.997 268.926C355.53 269.394 354.896 269.657 354.234 269.658H322.086C321.424 269.657 320.79 269.394 320.323 268.926C319.855 268.459 319.592 267.825 319.591 267.164V267.164Z" fill="#2F2E41"/>
<path d="M334.344 269.335C341.863 269.335 347.958 263.24 347.958 255.721C347.958 248.203 341.863 242.108 334.344 242.108C326.826 242.108 320.731 248.203 320.731 255.721C320.731 263.24 326.826 269.335 334.344 269.335Z" fill="#FFB7B7"/>
<path d="M315.199 254.415C315.203 250.521 316.752 246.787 319.506 244.033C322.259 241.28 325.993 239.731 329.887 239.726H332.659C336.553 239.731 340.287 241.28 343.04 244.033C345.794 246.787 347.343 250.521 347.347 254.415V254.692H341.49L339.493 249.098L339.093 254.692H336.066L335.058 251.87L334.857 254.692H315.199L315.199 254.415Z" fill="#2F2E41"/>
<path d="M333.005 271.216C332.73 270.844 332.566 270.401 332.531 269.94C332.496 269.478 332.593 269.016 332.809 268.607C335.746 263.021 339.858 252.699 334.4 246.333L334.008 245.876H349.854V269.666L335.459 272.206C335.313 272.231 335.166 272.244 335.018 272.245C334.625 272.245 334.237 272.151 333.887 271.973C333.538 271.794 333.235 271.534 333.005 271.216V271.216Z" fill="#2F2E41"/>
<path d="M148.162 482.109L156.571 485.114L172.164 454.111L159.753 449.676L148.162 482.109Z" fill="#9F616A"/>
<path d="M143.104 489.494L146.998 478.597L163.558 484.516C166.355 485.519 168.64 487.59 169.911 490.276C171.183 492.961 171.337 496.042 170.34 498.841L170.218 499.184L143.104 489.494Z" fill="#2F2E41"/>
<path d="M202.842 490.426L211.772 490.426L216.02 455.983L202.841 455.984L202.842 490.426Z" fill="#9F616A"/>
<path d="M200.564 487.511L218.15 487.51H218.151C219.622 487.51 221.08 487.8 222.439 488.363C223.799 488.926 225.035 489.752 226.075 490.793C227.116 491.833 227.941 493.069 228.505 494.428C229.068 495.788 229.358 497.245 229.358 498.717V499.081L200.565 499.082L200.564 487.511Z" fill="#2F2E41"/>
<path d="M182.491 270.379L186.375 262.705C186.375 262.705 200.842 266.33 202.157 274.715L182.491 270.379Z" fill="#F1F1F1"/>
<path d="M166.467 358.122L177.028 417.056L148.986 466.649L165.739 473.204L194.145 425.132L197.787 412.021L199.972 480.488L215.081 480.029L222.008 416.098L210.897 356.665L166.467 358.122Z" fill="#2F2E41"/>
<path d="M186.515 372.054C171 372.054 161.149 369.086 160.929 369.039L160.571 368.963L168.653 331.495L169.016 296.935C169.016 282.289 178.656 271.492 179.993 270.495C180.218 269.606 180.635 268.777 181.214 268.066C181.793 267.354 182.52 266.778 183.344 266.377C186.56 264.918 190.489 266.668 190.654 266.744L202.447 271.165L202.502 271.329C202.644 271.748 218.177 322.74 218.177 322.74C218.177 322.74 217.237 367.294 216.909 368.754C216.909 368.754 195.136 372.054 186.515 372.054Z" fill="#3F3D56"/>
<path d="M198.437 260.289C207.24 260.289 214.376 253.153 214.376 244.35C214.376 235.547 207.24 228.411 198.437 228.411C189.634 228.411 182.498 235.547 182.498 244.35C182.498 253.153 189.634 260.289 198.437 260.289Z" fill="#9F616A"/>
<path opacity="0.2" d="M180.665 299.761L208.55 338.667L212.668 320.499L180.665 299.761Z" fill="black"/>
<path d="M268.09 326.233C267.306 326.854 266.395 327.295 265.422 327.525C264.449 327.755 263.437 327.77 262.458 327.567C261.479 327.364 260.556 326.948 259.755 326.35C258.954 325.752 258.293 324.985 257.82 324.104L233.819 327.946L239.019 316.435L261.014 314.552C262.546 313.855 264.281 313.745 265.89 314.242C267.498 314.739 268.868 315.809 269.741 317.249C270.613 318.689 270.927 320.399 270.622 322.055C270.318 323.711 269.417 325.198 268.09 326.233H268.09Z" fill="#9F616A"/>
<path d="M240.255 315.78L248.879 314.934L251.269 326.964L240.417 327.156L240.255 315.78Z" fill="#F1F1F1"/>
<path d="M247.324 331.156L205.088 327.395L183.761 293.478L183.695 293.178C183.09 290.407 183.514 287.511 184.887 285.03C186.261 282.549 188.491 280.653 191.161 279.695C193.83 278.738 196.757 278.785 199.394 279.827C202.032 280.869 204.2 282.836 205.493 285.36L218.013 309.78L243.279 313.599L247.324 331.156Z" fill="#3F3D56"/>
<path d="M184.861 258.189L198.09 258.663C198.896 258.692 201.085 249.99 201.371 248.184C201.598 247.009 202.244 245.956 203.19 245.223C204.136 244.489 205.317 244.125 206.511 244.198C207.502 244.292 209.999 242.442 212.576 240.251C217.468 236.092 217.213 228.28 211.839 224.766C211.692 224.67 211.548 224.582 211.407 224.503C208.016 222.605 204.051 221.968 200.166 221.919C196.644 221.875 193.022 222.318 189.92 223.985C184.358 226.974 181.397 233.504 181.137 239.813C180.877 246.122 182.9 252.291 185.195 258.173" fill="#2F2E41"/>
<path d="M516.494 499.707H1.36682C1.18309 499.707 1.00689 499.634 0.876972 499.504C0.747057 499.374 0.674072 499.198 0.674072 499.015C0.674072 498.831 0.747057 498.655 0.876972 498.525C1.00689 498.395 1.18309 498.322 1.36682 498.322H516.769C516.953 498.322 517.129 498.395 517.259 498.525C517.389 498.655 517.462 498.831 517.462 499.015C517.462 499.397 516.877 499.707 516.494 499.707Z" fill="#CBCBCB"/>
</g>
<defs>
<clipPath id="clip0">
<rect width="516.788" height="499.707" fill="white" transform="translate(0.674072)"/>
</clipPath>
</defs>
</svg>
