<svg width="92" height="92" viewBox="0 0 92 92" fill="none" xmlns="http://www.w3.org/2000/svg">
<rect x="0.57666" y="0.146729" width="90.9445" height="90.9445" rx="45.4723" fill="white"/>
<rect x="0.57666" y="0.146729" width="90.9445" height="90.9445" rx="45.4723" fill="#F34854"/>
<g clip-path="url(#clip0)">
<path fill-rule="evenodd" clip-rule="evenodd" d="M32.5022 52.1268C30.1759 52.1213 28.3241 50.2668 28.3186 47.9377C28.3159 45.5837 30.2007 43.7072 32.5491 43.7238C34.8507 43.7431 36.7327 45.6527 36.7217 47.9543C36.7107 50.2641 34.8203 52.1324 32.5022 52.1268ZM32.4829 50.0212C33.6557 50.0323 34.6078 49.1023 34.6161 47.9432C34.6244 46.7925 33.6613 45.8266 32.5077 45.8266C31.3708 45.8266 30.438 46.7456 30.4215 47.8853C30.4049 49.0774 31.3045 50.0102 32.4829 50.0212ZM41.7939 47.8742C39.5365 47.372 38.0739 45.6638 38.234 43.6962C38.7969 43.6962 39.3654 43.6879 39.9367 43.7044C40.0498 43.71 40.2485 43.8121 40.2623 43.8949C40.4444 45.0843 41.2171 45.65 42.3679 45.8514V49.9522C41.2282 50.1289 40.4776 50.6835 40.2706 51.8371C40.254 51.9447 40.0636 52.091 39.9449 52.0965C39.3765 52.1213 38.8052 52.1075 38.2423 52.1075C38.0298 50.2282 39.302 48.7132 41.7939 47.8742ZM23.0008 47.8687C25.5452 48.8815 26.6822 50.2282 26.5166 52.0744C25.8736 52.0744 25.2251 52.0744 24.5766 52.0744C23.9391 50.4407 23.7956 50.3 22.4158 49.9467V45.8294C23.6493 45.6555 24.3503 44.9573 24.5186 43.7293H26.4973C26.7594 45.5479 25.2444 47.3306 23.0008 47.8687Z" fill="white"/>
<path fill-rule="evenodd" clip-rule="evenodd" d="M74.796 60.8415C74.4455 61.41 73.9184 61.559 73.2782 61.548C71.8818 61.5232 70.4854 61.5397 69.0891 61.5397C67.6927 61.5397 67.4471 61.2941 67.4195 59.8895C67.4167 59.768 67.4057 59.6466 67.3946 59.47C67.1821 59.4562 66.9862 59.4341 66.7903 59.4341C65.7637 59.4286 64.7316 59.3789 63.7078 59.4424C61.7512 59.5666 59.8857 59.2299 58.0367 58.6007C56.0001 57.908 53.9359 57.2843 51.8607 56.713C50.9417 56.4619 49.9676 56.2991 49.0183 56.2963C39.1967 56.266 29.378 56.277 19.5592 56.2743C18.3036 56.2743 18 55.9707 18 54.7068C18 50.1258 18.0028 45.5448 18.0055 40.9638C18.0055 39.7165 18.3146 39.4129 19.5868 39.4129C27.7415 39.4102 35.8962 39.4102 44.0509 39.4074C44.2689 39.4074 44.4869 39.4074 44.8236 39.4074C44.5835 39.1314 44.4262 38.9548 44.2717 38.7727C42.5442 36.7471 42.5552 33.6646 44.2993 31.6363C45.003 30.8194 45.5494 30.7891 46.3083 31.5452C48.6043 33.8385 50.8396 36.198 53.2074 38.4167C56.5493 41.5461 59.9878 44.5734 63.3932 47.6366C63.5174 47.7498 63.7105 47.8519 63.8733 47.8546C65.0186 47.874 66.1666 47.8657 67.425 47.8657C67.425 47.242 67.4222 46.657 67.425 46.0747C67.4333 45.0619 67.7948 44.7031 68.8048 44.7004C70.3254 44.6976 71.8459 44.7197 73.3665 44.6893C74.0067 44.6755 74.4814 44.8742 74.796 45.4317V60.8415ZM46.4518 43.6738C47.597 43.6738 48.6843 43.6296 49.7689 43.6821C51.5709 43.7704 52.8238 44.7087 53.4723 46.37C54.5485 49.113 52.5506 52.0051 49.5619 52.0658C48.1021 52.0962 46.6422 52.0548 45.1851 52.0851C43.8798 52.11 42.6021 53.1228 42.5055 54.1742C44.705 54.1742 46.9044 54.1245 49.0983 54.1963C50.1939 54.2321 51.306 54.4032 52.3684 54.6737C54.1346 55.1235 55.8925 55.6368 57.6117 56.2412C60.0264 57.0856 62.477 57.5189 65.0352 57.3284C65.8051 57.2705 66.5833 57.3202 67.3781 57.3202V49.9685C65.8106 49.9685 64.2928 49.9382 62.7778 49.9823C62.0354 50.0071 61.5056 49.756 60.9923 49.2317C58.5886 46.7839 56.1574 44.3637 53.7151 41.9545C53.4971 41.7421 53.1218 41.5848 52.8155 41.5792C50.9058 41.5434 48.9934 41.5572 47.0837 41.5572C46.8851 41.5572 46.6836 41.5765 46.4518 41.5875V43.6738ZM69.5692 59.3872H72.649V46.8336H69.5692V59.3872ZM46.449 49.8968C47.6633 49.8968 48.8554 49.9878 50.0255 49.8692C51.019 49.7698 51.6509 48.8509 51.6482 47.8491C51.6454 46.8832 50.9886 45.9284 50.0697 45.8456C48.8775 45.7435 47.6688 45.8208 46.449 45.8208V49.8968ZM20.1553 54.1218C20.2546 54.1438 20.3126 54.1687 20.3705 54.1687C26.8391 54.1714 33.3049 54.1687 39.7735 54.177C40.1074 54.177 40.215 54.05 40.3116 53.7437C40.8663 51.983 42.0198 50.7771 43.7887 50.2141C44.1917 50.0872 44.3214 49.9133 44.3186 49.4911C44.2993 47.0267 44.3103 44.5624 44.3103 42.098C44.3103 41.9407 44.2827 41.7807 44.2662 41.6041H20.1553V54.1218ZM45.4556 33.8054C44.8209 34.9313 44.9257 36.3304 45.8309 37.3294C46.5125 38.08 47.1859 39.0073 48.0634 39.3577C48.9299 39.7082 50.0476 39.435 51.1183 39.435C49.1783 37.506 47.3238 35.6626 45.4556 33.8054Z" fill="white"/>
</g>
<defs>
<clipPath id="clip0">
<rect width="56.8484" height="30.6319" fill="white" transform="translate(18 31)"/>
</clipPath>
</defs>
</svg>
