<svg width="91" height="92" viewBox="0 0 91 92" fill="none" xmlns="http://www.w3.org/2000/svg">
<rect y="0.146729" width="90.9445" height="90.9445" rx="45.4723" fill="#FFDC3F"/>
<g clip-path="url(#clip0)">
<path d="M34.0403 53.817C33.5349 53.8144 33.0269 53.8144 32.4824 53.8144C34.715 59.7332 40.9178 64.9539 49.1239 64.3626C56.5772 63.8259 63.1421 58.1493 64.2467 50.0162C64.7521 46.2909 64.0409 42.7557 62.0948 39.5358C59.2084 34.758 54.9177 32.1007 49.4079 31.4234V28.8339C49.7621 28.8339 50.08 28.8391 50.3978 28.8339C51.1064 28.8209 51.5831 28.3598 51.5805 27.6955C51.5753 27.0624 51.0882 26.5909 50.3978 26.5883C48.7045 26.5805 47.0085 26.5831 45.3152 26.5935C45.1224 26.5935 44.9089 26.6456 44.7396 26.7368C44.255 26.9973 44.0622 27.4818 44.1951 27.9977C44.3332 28.5187 44.7187 28.8183 45.2917 28.8313C45.6408 28.8391 45.9899 28.8313 46.3286 28.8313V31.4547C43.7418 31.7021 41.3633 32.5019 39.1776 33.8618C36.9919 35.2243 35.2152 36.9932 33.8162 39.244C34.6916 39.244 35.4731 39.2362 36.2547 39.2492C36.536 39.2544 36.7444 39.2049 36.9164 38.9522C37.0883 38.7021 37.3123 38.4833 37.5233 38.2593C39.9774 35.6776 42.9681 34.1432 46.5188 33.8175C50.4421 33.458 53.9564 34.5417 56.9732 37.087C59.9847 39.6296 61.6806 42.9016 61.9698 46.8301C62.2746 50.9749 60.972 54.6037 58.109 57.6335C55.6393 60.2465 52.5835 61.7184 49.0067 61.9971C44.6197 62.341 40.8657 60.8482 37.737 57.7898C36.76 56.8337 35.9655 55.7135 35.3689 54.4813C35.124 53.9759 34.8661 53.6919 34.2878 53.8326C34.2096 53.8509 34.1237 53.817 34.0403 53.817Z" fill="black"/>
<path d="M51.6381 44.2927C50.2965 45.7412 48.9523 47.1897 47.6002 48.6511C47.5481 48.6199 47.5246 48.6121 47.509 48.5964C46.1074 47.1193 44.7086 45.6448 43.3096 44.1703C42.7886 43.6232 42.1243 43.5763 41.6111 44.0557C41.1604 44.4751 41.1786 45.1915 41.6606 45.7021C42.6896 46.7963 43.7213 47.8904 44.7581 48.9794C45.4614 49.714 46.1596 50.4565 46.8864 51.1677C47.2928 51.5637 47.9206 51.5376 48.3348 51.1521C48.5432 50.9593 48.7282 50.7431 48.921 50.5346L48.9332 50.5216C51.3909 47.8713 53.8489 45.221 56.3065 42.5682C56.7702 42.0654 56.765 41.388 56.3013 40.9504C55.8272 40.5049 55.129 40.5335 54.6549 41.0389C53.6441 42.1201 52.6437 43.209 51.6381 44.2927Z" fill="black"/>
<path d="M30.4986 45.8764H30.5029V45.8738C32.389 45.8738 34.2725 45.8764 36.156 45.8738C36.8594 45.8712 37.3231 45.4257 37.3257 44.7666C37.3309 44.1258 36.875 43.6647 36.1977 43.6647C32.3942 43.6595 28.5907 43.6595 24.7846 43.6699C24.5944 43.6699 24.3808 43.7246 24.2167 43.8236C23.7504 44.0971 23.5784 44.5973 23.7348 45.1105C23.8754 45.5794 24.2949 45.8738 24.8524 45.8738C26.7344 45.8764 28.6165 45.8764 30.4986 45.8764Z" fill="black"/>
<path d="M25.5504 52.5355C26.8426 52.5381 28.1321 52.5381 29.4243 52.5381C30.7138 52.5381 32.0059 52.5433 33.2955 52.5355C34.0562 52.5303 34.5485 51.952 34.4261 51.233C34.3271 50.6702 33.8842 50.3394 33.1991 50.3368C31.7532 50.3316 30.3074 50.3368 28.8642 50.3368H25.6703C25.2769 50.3368 24.9148 50.4097 24.6595 50.7484C24.3885 51.1079 24.3234 51.4961 24.524 51.9129C24.7298 52.3427 25.0841 52.5355 25.5504 52.5355Z" fill="black"/>
<path d="M29.5337 42.0627C30.7555 42.0783 31.9747 42.0679 33.1965 42.0679V42.0601C34.4522 42.0601 35.7079 42.0757 36.9636 42.0523C37.5523 42.0419 38.0056 41.5234 37.9978 40.9529C37.99 40.3511 37.5289 39.864 36.9193 39.8614C34.4314 39.8509 31.9435 39.8535 29.4556 39.8614C28.9293 39.8614 28.5151 40.2261 28.4213 40.7158C28.2754 41.4531 28.7548 42.0549 29.5337 42.0627Z" fill="black"/>
<path d="M22.3046 42.0626C22.7527 42.0756 23.2034 42.0652 23.6515 42.0652V42.0678H24.2871C24.5112 42.0678 24.7352 42.073 24.9618 42.0678C25.6652 42.0522 26.1472 41.6093 26.1524 40.9763C26.1602 40.3172 25.6861 39.8639 24.9618 39.8587C24.0891 39.8508 23.2138 39.8508 22.3385 39.856C21.6768 39.8613 21.187 40.3224 21.174 40.9424C21.1636 41.5546 21.6481 42.0444 22.3046 42.0626Z" fill="black"/>
<path d="M30.9869 47.0933C30.5362 47.0881 30.0855 47.0907 29.6375 47.0907C29.1737 47.0907 28.7126 47.0855 28.2515 47.0933C27.6159 47.1011 27.1522 47.544 27.1365 48.1458C27.1183 48.7684 27.556 49.2686 28.1968 49.2868C29.1451 49.3103 30.0934 49.3103 31.0416 49.2868C31.6773 49.2712 32.1306 48.7554 32.1071 48.1458C32.0811 47.5466 31.6122 47.1011 30.9869 47.0933Z" fill="black"/>
<path d="M20.0352 52.5276C20.3295 52.5485 20.6265 52.5302 20.9235 52.5302V52.5354C21.2179 52.5354 21.5149 52.5511 21.8092 52.5302C22.4084 52.4886 22.82 52.0483 22.8304 51.4673C22.8435 50.8629 22.4423 50.3888 21.8275 50.3549C21.2257 50.3211 20.6213 50.3237 20.0195 50.3576C19.4255 50.3888 19.027 50.8603 19.0348 51.4491C19.04 52.0431 19.436 52.4807 20.0352 52.5276Z" fill="black"/>
<path d="M23.0706 49.2944C23.7401 49.3023 24.2403 48.8333 24.2429 48.1873C24.2455 47.5568 23.7688 47.0957 23.1045 47.0905C22.4063 47.0853 21.9243 47.5203 21.9139 48.1716C21.9061 48.8151 22.3907 49.2866 23.0706 49.2944Z" fill="black"/>
</g>
<defs>
<clipPath id="clip0">
<rect width="45.5898" height="38.0349" fill="white" transform="translate(19.0347 26.5839)"/>
</clipPath>
</defs>
</svg>
