<svg width="91" height="92" viewBox="0 0 91 92" fill="none" xmlns="http://www.w3.org/2000/svg">
<rect y="0.0858154" width="90.9445" height="90.9445" rx="45.4723" fill="#41C1CA"/>
<g clip-path="url(#clip0)">
<path fill-rule="evenodd" clip-rule="evenodd" d="M41.6373 40.7647C42.5096 40.7361 43.3417 40.6074 44.1425 40.7161C44.7316 40.7933 45.2263 40.7647 45.7813 40.5616C47.194 40.044 48.5009 40.4043 49.7478 41.165C50.0766 41.3681 50.497 41.5197 50.8774 41.5225C57.9467 41.5425 65.0189 41.5368 72.0883 41.5397C72.4229 41.5425 72.7746 41.5454 73.0863 41.6455C73.6468 41.8257 73.8785 42.2718 73.8413 42.8523C73.8041 43.4014 73.4238 43.8132 72.8718 43.8933C72.6373 43.9304 72.3971 43.9304 72.1598 43.9304C64.7501 43.9304 57.3433 43.9276 49.9365 43.9362C49.5104 43.9362 49.2073 43.8304 48.9013 43.5072C47.7116 42.2546 46.3017 42.3661 45.3808 43.6244C44.6201 43.3785 43.9194 43.0039 43.1988 42.9581C42.3637 42.9095 41.8489 43.6073 41.3885 44.3022C40.6307 43.8818 39.8471 43.7045 39.0121 44.0649C38.2285 44.3994 37.6537 44.9342 37.3448 45.8493C36.913 45.2259 36.5326 44.6826 36.158 44.1335C35.1256 42.6264 34.1018 41.1136 33.0609 39.6151C32.7892 39.2261 32.4918 38.8486 32.1572 38.5112C31.6081 37.9592 31.0905 37.8677 30.4871 38.148C29.6606 38.5283 29.1716 39.1518 29.326 39.8896C29.4576 40.513 29.7092 41.1507 30.0638 41.6769C32.8149 45.7578 35.6032 49.813 38.3829 53.8767C38.4716 54.0083 38.5602 54.1398 38.646 54.2742C39.0807 54.9405 39.0035 55.6297 38.4573 56.0129C37.8796 56.4162 37.2018 56.2474 36.7242 55.5582C36.1694 54.7604 35.629 53.9539 35.077 53.1503C34.9998 53.0388 34.914 52.933 34.771 52.7471C34.4479 53.5536 34.4507 54.3228 34.6738 55.0435C35.8063 58.704 38.2628 61.0175 41.9834 61.8898C44.3827 62.4503 46.6564 62.027 48.6067 60.4484C49.742 59.5276 50.8774 58.5753 51.8554 57.4972C53.0365 56.1931 53.5856 54.5745 53.5398 52.7871C53.537 52.6899 53.557 52.5927 53.5713 52.4497H55.7447C55.9592 53.525 55.9592 53.525 57.0802 53.5221C59.98 53.5221 62.8798 53.5192 65.7796 53.525C66.5918 53.5278 67.0694 53.9053 67.1351 54.5631C67.2095 55.3352 66.6804 55.8928 65.8225 55.8985C63.8378 55.91 61.8503 55.9043 59.8656 55.9043C58.533 55.9043 57.2032 55.8957 55.8734 55.9128C55.6875 55.9157 55.4072 55.9872 55.3329 56.1216C54.7095 57.214 54.1232 58.3322 53.5055 59.479C53.6285 59.4847 53.8315 59.499 54.0346 59.499C56.717 59.5018 59.3966 59.5018 62.0791 59.5047C62.977 59.5047 63.4718 59.9308 63.4718 60.6829C63.4718 61.4322 62.9685 61.8697 62.0791 61.8697C58.5644 61.8726 55.0498 61.884 51.5323 61.864C50.9317 61.8612 50.4312 61.9755 49.9422 62.3502C43.8393 67.0345 34.5308 63.2539 32.4403 55.6669C32.0371 54.2084 32.1972 52.7614 32.7921 51.26C32.5118 51.26 32.3059 51.26 32.0971 51.26C28.8227 51.26 25.5454 51.26 22.2681 51.26C19.1739 51.26 16.9547 49.0866 16.9432 45.9981C16.9261 41.2709 16.9833 36.5437 16.9204 31.8193C16.8832 28.808 19.1996 26.5145 22.2166 26.523C26.9839 26.5373 31.7511 26.5145 36.5155 26.5316C39.5268 26.5431 41.6345 28.6907 41.6373 31.7021C41.6402 34.5218 41.6373 37.3415 41.6373 40.1613C41.6373 40.3986 41.6373 40.6331 41.6373 40.7647ZM39.2408 41.5511C39.2494 41.3795 39.2666 41.2051 39.2666 41.0278C39.2694 37.9307 39.2752 34.8335 39.2666 31.7364C39.2609 30.0177 38.2657 28.9481 36.5527 28.9367C31.7282 28.9081 26.9038 28.9081 22.0794 28.9395C20.3521 28.9481 19.3283 30.0577 19.3254 31.7736C19.3226 36.4607 19.3226 41.1479 19.3254 45.8322C19.3254 47.7597 20.4207 48.8778 22.3396 48.8836C25.3567 48.8921 28.3766 48.8836 31.3936 48.8807C31.5824 48.8807 31.7711 48.8578 32.0685 48.8407C31.8855 48.5518 31.7568 48.3373 31.6196 48.1314C30.4356 46.3898 29.2517 44.654 28.0677 42.9124C27.2613 41.7256 26.7751 40.4387 27.0611 38.9888C27.3957 37.2901 28.5653 36.3206 30.1325 35.823C31.6539 35.3368 32.9379 35.9145 33.9245 37.0413C34.771 38.0079 35.4745 39.0974 36.2266 40.1441C36.6985 40.8019 37.1446 41.4768 37.5907 42.1259C38.177 41.92 38.6946 41.7399 39.2408 41.5511ZM50.986 46.4213C51.8297 46.4213 52.5847 46.3813 53.3282 46.4442C53.5484 46.4642 53.8201 46.7359 53.9287 46.9589C54.1432 47.3993 54.4292 47.5309 54.9068 47.528C59.3938 47.5109 63.8807 47.5166 68.3677 47.5194C68.6623 47.5194 68.9654 47.5195 69.2542 47.5738C69.8205 47.6825 70.2065 48.1629 70.2123 48.7063C70.218 49.2496 69.8405 49.7329 69.28 49.8645C69.0512 49.9159 68.8081 49.9245 68.5736 49.9245C63.529 49.9274 58.4872 49.9245 53.4454 49.936C53.0365 49.936 52.8249 49.8244 52.6333 49.4412C52.1414 48.4489 51.578 47.4937 50.986 46.4213Z" fill="black"/>
</g>
<defs>
<clipPath id="clip0">
<rect width="57.1954" height="38.0349" fill="white" transform="translate(16.9199 26.523)"/>
</clipPath>
</defs>
</svg>
