<svg width="92" height="92" viewBox="0 0 92 92" fill="none" xmlns="http://www.w3.org/2000/svg">
<rect x="0.57666" y="0.0858154" width="90.9445" height="90.9445" rx="45.4723" fill="#FF9441"/>
<g clip-path="url(#clip0)">
<path fill-rule="evenodd" clip-rule="evenodd" d="M36.0681 60.8914C33.9229 61.4391 31.8934 61.9473 29.873 62.4798C28.7684 62.7688 27.8434 62.6106 27.4205 61.4269C27.0462 60.3863 27.6548 59.5404 28.9814 59.1692C29.9916 58.8863 31.014 58.6581 32.0273 58.3964C33.0344 58.1348 34.0385 57.8609 35.2283 57.5445C34.7201 55.4784 34.2272 53.4732 33.7008 51.3342C30.5698 52.1253 27.5422 52.8921 24.5146 53.6588C24.2042 53.7349 23.8969 53.811 23.5865 53.884C22.5307 54.1214 21.7213 53.7471 21.4414 52.7186C21.1371 51.608 21.7152 50.8625 22.8045 50.5765C26.1029 49.7184 29.4074 48.8817 32.8427 48.0023C32.3254 45.921 31.8264 43.9128 31.297 41.7737C27.8282 42.6561 24.4446 43.5142 21.061 44.3722C20.0478 44.6278 19.0345 44.8895 18.0182 45.139C16.6033 45.489 15.6631 45.0569 15.4227 43.9554C15.2067 42.9604 15.8579 42.1693 17.2241 41.8193C21.1919 40.8031 25.1627 39.7959 29.1305 38.7826C29.523 38.6792 29.9156 38.5636 30.2898 38.4601C30.2137 36.1293 30.3507 35.9315 32.5871 35.3595C41.1404 33.1656 49.6938 30.9809 58.2471 28.7992C59.945 28.3672 60.6205 28.7658 61.0434 30.4423C63.2403 39.1812 65.4372 47.9201 67.622 56.6621C68.0936 58.5456 67.7345 59.1327 65.8754 59.6074C57.2369 61.8195 48.5923 64.0285 39.9507 66.2376C38.0763 66.7153 37.4678 66.3532 36.9931 64.4971C36.6919 63.3165 36.3876 62.1359 36.0681 60.8914ZM51.839 33.9781C52.5814 36.9783 53.3421 39.7898 53.9324 42.6379C54.0724 43.3103 53.8564 44.4179 53.3908 44.7556C52.9101 45.1056 51.842 44.9565 51.1787 44.6765C50.0255 44.1866 48.9849 43.432 47.8316 42.7474C47.4148 43.4412 47.0679 44.0254 46.721 44.6096C46.3711 45.1968 46.0486 45.8024 45.665 46.3653C44.7918 47.6432 43.2126 47.6128 42.5979 46.3044C42.388 45.8571 42.3028 45.349 42.178 44.8652C41.5208 42.2697 40.8666 39.6711 40.1819 36.9539C38.0642 37.4986 36.059 38.0159 34.0112 38.5423C36.0559 46.6756 38.0611 54.6447 40.0815 62.6897C48.1937 60.6115 56.1141 58.5821 64.068 56.5434C62.0202 48.4009 60.0119 40.4257 57.9915 32.3928C55.8768 32.9374 53.9446 33.4334 51.839 33.9781ZM48.4889 34.827C46.7514 35.2773 45.1539 35.6912 43.5108 36.1172C43.9367 37.7876 44.3232 39.303 44.7248 40.8852C46.8032 38.5392 46.8032 38.5392 49.6908 39.6164C49.2831 37.9854 48.9027 36.4762 48.4889 34.827Z" fill="black"/>
</g>
<defs>
<clipPath id="clip0">
<rect width="52.6403" height="38.0349" fill="white" transform="translate(15.3821 28.6378)"/>
</clipPath>
</defs>
</svg>
