<svg width="55" height="25" viewBox="0 0 55 25" fill="none" xmlns="http://www.w3.org/2000/svg">
<g clip-path="url(#clip0)">
<path d="M11.1189 23.743C10.3358 24.6704 8.78961 24.5493 7.66199 24.5382C6.64945 24.5623 5.64255 24.3806 4.70227 24.0042C3.762 23.6277 2.90791 23.0643 2.19173 22.3482C1.47555 21.632 0.912178 20.7779 0.535735 19.8376C0.159293 18.8973 -0.0223905 17.8904 0.00168829 16.8779V2.88811C-0.0127567 2.51341 0.0504048 2.13976 0.187209 1.79063C0.324013 1.4415 0.531506 1.12441 0.796666 0.859274C1.06183 0.594135 1.37893 0.386666 1.72807 0.249888C2.07721 0.113111 2.45086 0.049978 2.82556 0.0644518C3.20193 0.0493962 3.57737 0.111885 3.92857 0.248037C4.27977 0.384188 4.59922 0.591095 4.86709 0.855905C5.13496 1.12072 5.34553 1.43777 5.4857 1.78739C5.62588 2.137 5.69268 2.5117 5.68194 2.88821V16.878C5.62038 18.7604 7.65112 19.01 9.09037 18.858C11.6175 18.7024 12.8341 22.0873 11.1189 23.743Z" fill="#23BAC2"/>
<path d="M20.3103 24.7011C8.42183 24.6264 8.40005 6.75622 20.3105 6.69812C32.2633 6.76999 32.2368 24.6159 20.3103 24.7011ZM20.3103 12.4159C16.0471 12.3019 16.0678 19.082 20.3106 18.9832C24.5882 19.0793 24.6091 12.3033 20.3103 12.4159V12.4159Z" fill="#FED740"/>
<path d="M38.9197 24.5549C31.0919 24.9427 27.0037 14.4902 32.5583 9.25032C34.5276 7.30633 38.4421 5.52606 40.9647 7.48115C42.0417 8.48981 42.0524 10.5556 40.9647 11.5552C38.9681 13.0926 35.8687 11.7221 35.6741 15.629C35.5609 19.8616 42.2953 19.8451 42.1982 15.6284V2.90479C42.0619 0.40275 45.4053 -0.844403 47.067 0.876109C48.6761 1.68458 47.574 14.1563 47.8788 15.6287C47.9914 20.5451 43.8254 24.6653 38.9197 24.5549Z" fill="#F6933D"/>
<path d="M54.0997 23.7816C52.4249 25.486 49.0717 24.2975 49.2309 21.753V9.58071C49.2164 9.20599 49.2796 8.83233 49.4164 8.48318C49.5532 8.13403 49.7607 7.81693 50.0259 7.55176C50.291 7.2866 50.6081 7.07911 50.9573 6.9423C51.3064 6.8055 51.6801 6.74234 52.0548 6.75678C53.7133 6.73365 54.9367 7.91178 54.9111 9.58071C54.6089 11.1306 55.7064 22.875 54.0997 23.7816Z" fill="#F86166"/>
<path d="M54.9112 2.76376C54.965 6.44874 49.1768 6.44877 49.2309 2.76352C49.1771 -0.921187 54.9654 -0.921241 54.9112 2.76376Z" fill="#FED740"/>
</g>

</svg>
